<?xml version="1.0" encoding="UTF-8"?>
<svg id="Calque_2" data-name="Calque 2" xmlns="http://www.w3.org/2000/svg" xmlns:xlink="http://www.w3.org/1999/xlink" viewBox="0 0 244.34 292.24">
  <defs>
    <style>
      .cls-1 {
        fill: #beb2a4;
      }

      .cls-2 {
        fill: #b2d9ec;
      }

      .cls-3 {
        fill: #958a78;
      }

      .cls-4 {
        fill: #d3f0f7;
      }

      .cls-5 {
        fill: url(#Dégradé_sans_nom_13);
        stroke: #1d1d1b;
        stroke-miterlimit: 10;
        stroke-width: .25px;
      }

      .cls-6 {
        fill: #e0d6c5;
      }

      .cls-7 {
        fill: #f2f1ef;
      }

      .cls-8 {
        fill: url(#Dégradé_sans_nom_13-2);
      }
    </style>
    <linearGradient id="Dégradé_sans_nom_13" data-name="Dégradé sans nom 13" x1="58.76" y1="175.46" x2="200.32" y2="175.46" gradientUnits="userSpaceOnUse">
      <stop offset="0" stop-color="#573b64"/>
      <stop offset="1" stop-color="#d38ff0"/>
      <stop offset="1" stop-color="#000"/>
    </linearGradient>
    <linearGradient id="Dégradé_sans_nom_13-2" data-name="Dégradé sans nom 13" x1="59.02" y1="213.23" x2="236.94" y2="213.23" xlink:href="#Dégradé_sans_nom_13"/>
  </defs>
  <g id="Calque_1-2" data-name="Calque 1">
    <path class="cls-2" d="M243.41,239.46c-4.51,19.39-17.41,32.34-19.68,34.57-5.12,5.01-19.46,19.07-38.23,18.16-10.88-.53-18.75-5.86-25.19-10.48-34.2-24.54-58.45-50.7-58.45-50.7-28.53-28.53-65.22-57.15-58.04-84.33,1.9-7.18,5.87-11.78,4.16-19.78-.73-3.46-2.2-5.99-3.89-8.06,4.88,4.84,6.09,4.26,8.03,7.34,0,0,.18.28.34.56,2.21,4.02-1.36,16.8-1.36,16.8-.37,1.35-2.35,8.57-2.38,13.96-.05,7.66,3.8,13.78,8.85,20.42,13.12,17.25,30.23,32.61,37.79,39.15,12.6,11.67,22.34,21.28,28.59,27.58,0,0,35.17,35.37,53.03,37.27.34.04.7.07.7.07,0,0,9.02.81,18.78-2.28,8.08-2.56,36.98-18.78,40.18-47.32,1.57-14.06-3.73-25.46-12.94-45.28-2.5-5.36-5.64-10.84-11.92-21.78-4.47-7.8-7.18-12.21-12.21-20.32,0-.01-.01-.02-.02-.03-.05-.17-.14-.31-.27-.43-2.41-3.89-5.36-8.64-9.28-14.97-18.6-30.08-21.43-35.44-29.96-41.53-6.35-4.54-11.33-8.09-19.06-10.38-8.18-2.43-12.01-1.06-17.58-5.19-3.56-2.64-6.13-6.12-8.67-9.96-1.64-7.1-7.58-14.07-8.31-14.55,6.37,2.25,4.46,11.89,13.75,18.95,8.67,6.6,18.75,4.68,25.35,4.93,13.27.5,26.28,11.46,59.86,69.72,41.38,71.79,40.4,87.71,38.03,97.89Z"/>
    <path class="cls-4" d="M236.71,232.05c-3.2,28.54-32.1,44.76-40.18,47.32-9.76,3.09-18.78,2.28-18.78,2.28,0,0-.36-.03-.7-.07-17.86-1.9-53.03-37.27-53.03-37.27-6.25-6.3-15.99-15.91-28.59-27.58-7.56-6.54-24.67-21.9-37.79-39.15-5.05-6.64-8.9-12.76-8.85-20.42.03-5.39,2.01-12.61,2.38-13.96,0,0,3.57-12.78,1.36-16.8-.16-.28-.34-.56-.34-.56-1.94-3.08-3.15-2.5-8.03-7.34l-.03-.03c-.9-1.11-1.86-2.09-2.81-3.01-2.83-2.75-5.52-5.01-5.94-8.71-.02-.1-.03-.21-.04-.32.14.13.27.27.4.4,4.49,4.46,6.9,7.3,8.97,9.17.12.11.24.22.36.32.72.62,1.41,1.13,2.15,1.54.25.14.5.27.76.39.78.36,1.63.64,2.63.87.69.15,1.38.27,2.07.35,1.23.14,2.46.15,3.7.04.23-.01.46-.03.69-.07.28-.03.55-.07.83-.11.53-.09,1.06-.19,1.59-.32.15-.04.31-.08.47-.12.18-.04.37-.09.55-.15.73-.21,1.47-.46,2.21-.73.34-.13.68-.27,1.02-.41,1.23-.52,2.47-1.13,3.73-1.83.05-.03.1-.05.14-.07.02-.01.03-.01.04-.02,2.79-1.55,5.66-3.51,8.67-5.78.46-.34.92-.69,1.39-1.06,1.37-1.06,2.77-2.18,4.21-3.34.08-.07.17-.14.25-.21.03-.02.05-.04.08-.07,2.48-2.03,5.07-4.22,7.79-6.52,2.09-1.77,4.04-3.42,5.86-4.97.67-.58,1.31-1.13,1.94-1.67,1.07-.94,2.09-1.83,3.05-2.7.44-.39.87-.79,1.29-1.17,1.18-1.08,2.27-2.13,3.28-3.14.19-.18.37-.37.54-.55.25-.25.48-.49.7-.73.34-.35.66-.7.97-1.05.32-.36.63-.7.91-1.04.29-.33.56-.66.82-.99.29-.35.56-.71.82-1.06.01-.01.01-.02.01-.02.17-.22.34-.45.49-.67.47-.67.9-1.34,1.29-2.01.13-.23.26-.45.38-.67.24-.45.47-.91.68-1.36.1-.23.2-.46.3-.69.09-.23.19-.45.28-.68.36-.96.65-1.94.86-2.95.05-.2.09-.4.12-.6.01-.02.01-.04.01-.06.05-.23.09-.47.12-.71.04-.25.07-.5.1-.76.13-1.21.16-2.3.01-3.44-.03-.22-.06-.43-.1-.66-.1-.55-.24-1.12-.43-1.72-.08-.28-.18-.56-.29-.86-.02-.06-.05-.12-.07-.19-.08-.21-.16-.42-.26-.64-.14-.36-.3-.73-.48-1.13-.01,0-.01-.01-.01-.01-.32-.72-.71-1.5-1.16-2.36-.32-.61-.67-1.27-1.06-1.97-.97-1.76-2.16-3.8-3.61-6.22-.31-.53-.64-1.08-.98-1.65.01-.01.03,0,.07.03.73.48,6.67,7.45,8.31,14.55,2.54,3.84,5.11,7.32,8.67,9.96,5.57,4.13,9.4,2.76,17.58,5.19,7.73,2.29,12.71,5.84,19.06,10.38,8.53,6.09,11.36,11.45,29.96,41.53,3.92,6.33,6.87,11.08,9.28,14.97.13.12.22.26.27.43.01.01.02.02.02.03,5.03,8.11,7.74,12.52,12.21,20.32,6.28,10.94,9.42,16.42,11.92,21.78,9.21,19.82,14.51,31.22,12.94,45.28Z"/>
    <path class="cls-6" d="M73.78.45c-6.02,11.17-14.99,25.2-28.17,39.43C29.46,57.32,12.91,68.67.54,75.8c-3.39-12.38,9.46-25.39,30.28-46.48C50.58,9.3,62.26-2.52,73.78.45Z"/>
    <path class="cls-3" d="M113.5,67.02c-.25.91-1.67,5.62-4.63,11.16,0,0,0,.01-.01.02-.26.35-.53.71-.82,1.06-.26.33-.53.66-.82.99-.29.35-.59.69-.91,1.04-.31.35-.63.7-.97,1.05-.22.24-.45.48-.7.73-.17.18-.35.37-.54.55-1.01,1.01-2.1,2.06-3.28,3.14-.42.38-.85.78-1.29,1.17-.96.87-1.98,1.76-3.05,2.7-.63.54-1.27,1.1-1.94,1.67-1.82,1.55-3.77,3.2-5.86,4.97-3.15,2.59-5.68,4.73-7.79,6.52-.03.03-.05.05-.08.07-.08.07-.17.14-.25.21-1.44,1.16-2.84,2.28-4.21,3.34-.47.37-.93.72-1.39,1.06-3.01,2.27-5.88,4.23-8.67,5.78-.01.01-.02.01-.04.02-.04.02-.09.04-.14.07-1.88.87-10.14,4.5-16.86,3.35-1-.23-1.85-.51-2.63-.87-.26-.12-.51-.25-.76-.39-.74-.41-1.43-.92-2.15-1.54-.12-.1-.24-.21-.36-.32-2.07-1.87-4.48-4.71-8.97-9.17-.21-.3-.34-.44-.4-.4-.05-.65-.03-1.27.07-1.88,11.16-6.44,23.85-14.8,37.03-25.57,13.38-10.95,24.24-21.89,32.84-31.66.37.06.75.15,1.13.28h.01c-.21.12,3.32,6.83,6.81,12.2,0,0,0,.01.01.01.18.4.34.77.48,1.13.1.22.18.43.26.64.02.07.05.13.07.19.11.3.2.58.29.86.19.6.33,1.17.43,1.72.04.22.07.44.1.66.15,1.14.12,2.23-.01,3.44Z"/>
    <path class="cls-1" d="M105.78,47.01c-.19.21-.38.43-.57.65-7.66-1.17-15.26,12.07-35.98,28.99-19.55,15.96-32.69,20.43-33.89,28.24-.42.24-.84.48-1.25.72-1.19-1.15-2.51-2.4-3.98-3.76C9.43,82.81,2.74,83.87.54,75.8c12.37-7.13,28.92-18.48,45.07-35.92C58.79,25.65,67.76,11.62,73.78.45c5.05,1.3,6.47,4.52,22.53,30.98,3.88,6.39,6.99,11.47,9.47,15.58Z"/>
    <path class="cls-7" d="M105.21,47.66c-8.6,9.77-19.46,20.71-32.84,31.66-13.18,10.77-25.87,19.13-37.03,25.57,1.2-7.81,14.34-12.28,33.89-28.24,20.72-16.92,28.32-30.16,35.98-28.99Z"/>
    <path class="cls-5" d="M195.1,166.78c-7.36,13.81-18.1,21.67-21.44,24-20.42,14.19-42.29,14.73-48.54,14.8-35.22.41-59.67-20.15-66.36-26.18,23.13-1.74,50.32-5.52,80.17-13.13,22.12-5.64,56.5-24.22,60.35-20.44.13.12.22.26.27.43.01.01.02.02.02.03,2.4,7.34-1.43,14.78-4.47,20.49Z"/>
    <path class="cls-8" d="M59.02,179.36c3.41,4.22,8.82,10.67,15.95,18.11,10.49,10.95,16.94,15.95,30.79,28.95,13.85,13,13.37,13.6,21.17,20.72,25.36,23.14,38.37,35,56.27,34.88,24.11-.17,42.45-21.99,48.17-32.95,4.15-7.95,5.2-15.84,5.2-15.84.91-6.83.04-12.47-.99-17.13-2.32-10.48-6.55-19.61-15.96-37.67-2.64-5.06-.49-.68-11.87-20.98-6.38-11.38-6.92-12.5-8.46-12.9-9.85-2.56-18.7,35.23-40.94,50.05-16.16,10.77-44.88,13.06-99.32-15.25Z"/>
  </g>
</svg>